DBRep_DrawableShape

CASCADE Topology V1, (c) Matra-Datavision
Locations 1
1
              1               0               0           10.93 
              0               1               0         -12.117 
              0               0               1          -7.697 
Curve2ds 4
8 0 6.2831853071795862
7 0 0  1 2 2  0 1.5707963267948966  6.2831853071795862 1.5707963267948966 
 0 2 6.2831853071795862 2
8 4.7123889803846897 7.8539816339744828
7 0 0  2 5 3  6.2831853071795862 -1.5707963267948968  6.2831853071795845 -0.78539816339744839  6.2831853071795862 -2.7204811846010155e-16  6.2831853071795845 0.78539816339744806  6.2831853071795862 1.5707963267948961 
 4.7123889803846897 3 6.2831853071795862 2 7.8539816339744828 3
8 4.7123889803846897 7.8539816339744828
7 0 0  2 5 3  0 -1.5707963267948968  -1.7763568394002505e-15 -0.78539816339744839  0 -2.7204811846010155e-16  -1.7763568394002505e-15 0.78539816339744806  0 1.5707963267948961 
 4.7123889803846897 3 6.2831853071795862 2 7.8539816339744828 3
8 0 6.2831853071795862
7 0 0  1 2 2  0 -1.5707963267948966  6.2831853071795862 -1.5707963267948966 
 0 2 6.2831853071795862 2
Curves 1
8 4.7123889803846897 7.8539816339744828
7 1 0  2 5 3  -7.3478807948841184e-15 1.799711739194229e-30 -40  1 39.999999999999986 -9.7971743931788229e-15 -40.000000000000007  0.70710678118654757 40 -9.7971743931788261e-15 -9.7971743931788261e-15  1 40.000000000000007 -9.7971743931788276e-15 39.999999999999986  0.70710678118654757 1.2246467991473532e-14 -2.9995195653237154e-30 40  1
 4.7123889803846897 3 6.2831853071795862 2 7.8539816339744828 3
Polygon3D 0
PolygonOnTriangulations 0
Surfaces 1
9 1 1 1 0 2 2 6 5 4 3 2.4492935982947065e-15 0 -40  1 40 0 -39.999999999999993  0.70710678118654757 40 0 0  1 40 0 39.999999999999993  0.70710678118654757 2.4492935982947065e-15 0 40  1 
2.4492935982947065e-15 4.2423009548996271e-15 -40  0.5 40 69.28203230275507 -39.999999999999993  0.35355339059327379 40 69.28203230275507 0  0.5 40 69.28203230275507 39.999999999999993  0.35355339059327379 2.4492935982947065e-15 4.2423009548996271e-15 40  0.5 
-1.2246467991473527e-15 2.1211504774498139e-15 -40  1 -19.999999999999993 34.641016151377549 -39.999999999999993  0.70710678118654757 -19.999999999999993 34.641016151377549 0  1 -19.999999999999993 34.641016151377549 39.999999999999993  0.70710678118654757 -1.2246467991473527e-15 2.1211504774498139e-15 40  1 
-4.8985871965894122e-15 5.9990391306474296e-31 -40  0.5 -79.999999999999986 9.7971743931788245e-15 -39.999999999999993  0.35355339059327379 -79.999999999999986 9.7971743931788245e-15 0  0.5 -79.999999999999986 9.7971743931788245e-15 39.999999999999993  0.35355339059327379 -4.8985871965894122e-15 5.9990391306474296e-31 40  0.5 
-1.2246467991473544e-15 -2.1211504774498131e-15 -40  1 -20.000000000000018 -34.641016151377535 -39.999999999999993  0.70710678118654757 -20.000000000000018 -34.641016151377535 0  1 -20.000000000000018 -34.641016151377535 39.999999999999993  0.70710678118654757 -1.2246467991473544e-15 -2.1211504774498131e-15 40  1 
2.449293598294703e-15 -4.2423009548996286e-15 -40  0.5 39.999999999999936 -69.282032302755113 -39.999999999999993  0.35355339059327379 39.999999999999936 -69.282032302755113 0  0.5 39.999999999999936 -69.282032302755113 39.999999999999993  0.35355339059327379 2.449293598294703e-15 -4.2423009548996286e-15 40  0.5 

0 2
2.0943951023931953 2
4.1887902047863905 2
6.2831853071795862 2

-1.5707963267948966 3
0 2
1.5707963267948966 3

Triangulations 0

TShapes 9
Ve
1e-07
2.44929359829471e-15 -5.99903913064743e-31 40
0 0

0101101
*
Ed
 1e-07 1 1 1
2  1 1 0 0 6.28318530717959
0

0101000
+9 0 -9 0 *
Ve
1e-07
2.44929359829471e-15 -5.99903913064743e-31 -40
0 0

0101101
*
Ed
 1e-07 1 1 0
1  1 0 4.71238898038469 7.85398163397448
3  2 3CN 1 0 4.71238898038469 7.85398163397448
0

0101000
-9 0 +7 0 *
Ed
 1e-07 1 1 1
2  4 1 0 0 6.28318530717959
0

0101000
+7 0 -7 0 *
Wi

0101100
-8 0 +6 0 +5 0 -6 0 *
Fa
0  1e-07 1 0

0111000
+4 0 *
Sh

0101100
+3 0 *
So

1100000
+2 0 *

+1 1 